<svg width="66" height="49" viewBox="0 0 66 49" fill="none" xmlns="http://www.w3.org/2000/svg">
<path fill-rule="evenodd" clip-rule="evenodd" d="M20.4998 8.8C18.1998 12.3 17.3998 16.5 17.3998 19.4H14.7998C14.7998 16.1 15.6998 11.3 18.3998 7.3C21.0998 3.2 25.6998 0 32.8998 0C40.0998 0 44.6998 3.2 47.3998 7.3C50.0998 11.3 50.9998 16.1 51.0998 19.4H48.4998C48.4998 16.5 47.6998 12.3 45.2998 8.8C42.9998 5.4 39.1998 2.6 32.8998 2.6C26.5998 2.7 22.7998 5.4 20.4998 8.8Z" fill="url(#paint0_linear_9023_26820)"/>
<path fill-rule="evenodd" clip-rule="evenodd" d="M1.3 11.5C2 11.5 2.6 12.1 2.6 12.8V38.8C2.6 39.5 2 40.1 1.3 40.1C0.6 40.1 0 39.5 0 38.8V12.8C0 12.1 0.6 11.5 1.3 11.5Z" fill="url(#paint1_linear_9023_26820)"/>
<path fill-rule="evenodd" clip-rule="evenodd" d="M33.0002 11.5C33.7002 11.5 34.3002 12.1 34.3002 12.8V38.8C34.3002 39.5 33.7002 40.1 33.0002 40.1C32.3002 40.1 31.7002 39.5 31.7002 38.8V12.8C31.7002 12.1 32.3002 11.5 33.0002 11.5Z" fill="url(#paint2_linear_9023_26820)"/>
<path fill-rule="evenodd" clip-rule="evenodd" d="M64.7004 11.5C65.4004 11.5 66.0004 12.1 66.0004 12.8V38.8C66.0004 39.5 65.4004 40.1 64.7004 40.1C64.0004 40.1 63.4004 39.5 63.4004 38.8V12.8C63.4004 12.1 64.0004 11.5 64.7004 11.5Z" fill="url(#paint3_linear_9023_26820)"/>
<path fill-rule="evenodd" clip-rule="evenodd" d="M6.0998 16.8C6.7998 16.8 7.3998 17.4 7.3998 18.1V35C7.3998 35.7 6.7998 36.3 6.0998 36.3C5.3998 36.3 4.7998 35.7 4.7998 35V18.2C4.7998 17.4 5.3998 16.8 6.0998 16.8Z" fill="url(#paint4_linear_9023_26820)"/>
<path fill-rule="evenodd" clip-rule="evenodd" d="M27.0998 15.5C27.7998 15.5 28.3998 16.1 28.3998 16.8V33.6C28.3998 34.3 27.7998 34.9 27.0998 34.9C26.3998 34.9 25.7998 34.3 25.7998 33.6V16.8C25.7998 16.1 26.2998 15.5 27.0998 15.5Z" fill="url(#paint5_linear_9023_26820)"/>
<path fill-rule="evenodd" clip-rule="evenodd" d="M38.7004 15.5C39.4004 15.5 40.0004 16.1 40.0004 16.8V33.6C40.0004 34.3 39.4004 34.9 38.7004 34.9C38.0004 34.9 37.4004 34.3 37.4004 33.6V16.8C37.4004 16.1 38.0004 15.5 38.7004 15.5Z" fill="url(#paint6_linear_9023_26820)"/>
<path fill-rule="evenodd" clip-rule="evenodd" d="M59.8996 15.5C60.5996 15.5 61.1996 16.1 61.1996 16.8V33.6C61.1996 34.3 60.5996 34.9 59.8996 34.9C59.1996 34.9 58.5996 34.3 58.5996 33.6V16.8C58.5996 16.1 59.1996 15.5 59.8996 15.5Z" fill="url(#paint7_linear_9023_26820)"/>
<path fill-rule="evenodd" clip-rule="evenodd" d="M10.8996 19.9C11.5996 19.9 12.1996 20.5 12.1996 21.2V30.4C12.1996 31.1 11.5996 31.7 10.8996 31.7C10.1996 31.7 9.59961 31.1 9.59961 30.4V21.2C9.59961 20.5 10.1996 19.9 10.8996 19.9Z" fill="url(#paint8_linear_9023_26820)"/>
<path fill-rule="evenodd" clip-rule="evenodd" d="M21.7004 19.9C22.4004 19.9 23.0004 20.5 23.0004 21.2V30.4C23.0004 31.1 22.4004 31.7 21.7004 31.7C21.0004 31.7 20.4004 31.1 20.4004 30.4V21.2C20.4004 20.5 21.0004 19.9 21.7004 19.9Z" fill="url(#paint9_linear_9023_26820)"/>
<path fill-rule="evenodd" clip-rule="evenodd" d="M44.0998 19.9C44.7998 19.9 45.3998 20.5 45.3998 21.2V30.4C45.3998 31.1 44.7998 31.7 44.0998 31.7C43.3998 31.7 42.7998 31.1 42.7998 30.4V21.2C42.7998 20.5 43.3998 19.9 44.0998 19.9Z" fill="url(#paint10_linear_9023_26820)"/>
<path fill-rule="evenodd" clip-rule="evenodd" d="M55.0998 19.9C55.7998 19.9 56.3998 20.5 56.3998 21.2V30.4C56.3998 31.1 55.7998 31.7 55.0998 31.7C54.3998 31.7 53.7998 31.1 53.7998 30.4V21.2C53.7998 20.5 54.2998 19.9 55.0998 19.9Z" fill="url(#paint11_linear_9023_26820)"/>
<path fill-rule="evenodd" clip-rule="evenodd" d="M16.0998 22.2C16.7998 22.2 17.3998 22.8 17.3998 23.5V28.1C17.3998 28.8 16.7998 29.4 16.0998 29.4C15.3998 29.4 14.7998 28.8 14.7998 28.1V23.5C14.7998 22.8 15.3998 22.2 16.0998 22.2Z" fill="url(#paint12_linear_9023_26820)"/>
<path fill-rule="evenodd" clip-rule="evenodd" d="M49.7004 22.2C50.4004 22.2 51.0004 22.8 51.0004 23.5V28.1C51.0004 28.8 50.4004 29.4 49.7004 29.4C49.0004 29.4 48.4004 28.8 48.4004 28.1V23.5C48.4004 22.8 49.0004 22.2 49.7004 22.2Z" fill="url(#paint13_linear_9023_26820)"/>
<path fill-rule="evenodd" clip-rule="evenodd" d="M19.4996 42.1C16.5996 38.8 15.0996 34.9 15.0996 32.1H17.6996C17.6996 34.1 18.7996 37.4 21.3996 40.3C23.8996 43.1 27.6996 45.4 32.8996 45.4C38.0996 45.4 41.8996 43.2 44.3996 40.4C46.8996 37.6 48.0996 34.3 48.0996 32.1H50.6996C50.6996 35.1 49.1996 39 46.2996 42.3C43.3996 45.6 38.8996 48.1 32.8996 48.1C26.8996 48 22.3996 45.4 19.4996 42.1Z" fill="url(#paint14_linear_9023_26820)"/>
<defs>
<linearGradient id="paint0_linear_9023_26820" x1="0.478106" y1="9.7148" x2="170.702" y2="9.7148" gradientUnits="userSpaceOnUse">
<stop stop-color="#ED265D"/>
<stop offset="1" stop-color="#4353FF"/>
</linearGradient>
<linearGradient id="paint1_linear_9023_26820" x1="0.4783" y1="25.8167" x2="170.702" y2="25.8167" gradientUnits="userSpaceOnUse">
<stop stop-color="#ED265D"/>
<stop offset="1" stop-color="#4353FF"/>
</linearGradient>
<linearGradient id="paint2_linear_9023_26820" x1="0.478515" y1="25.8167" x2="170.702" y2="25.8167" gradientUnits="userSpaceOnUse">
<stop stop-color="#ED265D"/>
<stop offset="1" stop-color="#4353FF"/>
</linearGradient>
<linearGradient id="paint3_linear_9023_26820" x1="0.478728" y1="25.8167" x2="170.702" y2="25.8167" gradientUnits="userSpaceOnUse">
<stop stop-color="#ED265D"/>
<stop offset="1" stop-color="#4353FF"/>
</linearGradient>
<linearGradient id="paint4_linear_9023_26820" x1="0.478105" y1="26.5816" x2="170.701" y2="26.5816" gradientUnits="userSpaceOnUse">
<stop stop-color="#ED265D"/>
<stop offset="1" stop-color="#4353FF"/>
</linearGradient>
<linearGradient id="paint5_linear_9023_26820" x1="0.4781" y1="25.2432" x2="170.702" y2="25.2432" gradientUnits="userSpaceOnUse">
<stop stop-color="#ED265D"/>
<stop offset="1" stop-color="#4353FF"/>
</linearGradient>
<linearGradient id="paint6_linear_9023_26820" x1="0.478713" y1="25.2432" x2="170.702" y2="25.2432" gradientUnits="userSpaceOnUse">
<stop stop-color="#ED265D"/>
<stop offset="1" stop-color="#4353FF"/>
</linearGradient>
<linearGradient id="paint7_linear_9023_26820" x1="0.477859" y1="25.2432" x2="170.701" y2="25.2432" gradientUnits="userSpaceOnUse">
<stop stop-color="#ED265D"/>
<stop offset="1" stop-color="#4353FF"/>
</linearGradient>
<linearGradient id="paint8_linear_9023_26820" x1="0.477912" y1="25.817" x2="170.701" y2="25.817" gradientUnits="userSpaceOnUse">
<stop stop-color="#ED265D"/>
<stop offset="1" stop-color="#4353FF"/>
</linearGradient>
<linearGradient id="paint9_linear_9023_26820" x1="0.478688" y1="25.817" x2="170.702" y2="25.817" gradientUnits="userSpaceOnUse">
<stop stop-color="#ED265D"/>
<stop offset="1" stop-color="#4353FF"/>
</linearGradient>
<linearGradient id="paint10_linear_9023_26820" x1="0.478067" y1="25.817" x2="170.702" y2="25.817" gradientUnits="userSpaceOnUse">
<stop stop-color="#ED265D"/>
<stop offset="1" stop-color="#4353FF"/>
</linearGradient>
<linearGradient id="paint11_linear_9023_26820" x1="0.478059" y1="25.817" x2="170.702" y2="25.817" gradientUnits="userSpaceOnUse">
<stop stop-color="#ED265D"/>
<stop offset="1" stop-color="#4353FF"/>
</linearGradient>
<linearGradient id="paint12_linear_9023_26820" x1="0.478109" y1="25.8171" x2="170.701" y2="25.8171" gradientUnits="userSpaceOnUse">
<stop stop-color="#ED265D"/>
<stop offset="1" stop-color="#4353FF"/>
</linearGradient>
<linearGradient id="paint13_linear_9023_26820" x1="0.478721" y1="25.8171" x2="170.702" y2="25.8171" gradientUnits="userSpaceOnUse">
<stop stop-color="#ED265D"/>
<stop offset="1" stop-color="#4353FF"/>
</linearGradient>
<linearGradient id="paint14_linear_9023_26820" x1="0.47791" y1="40.0163" x2="170.701" y2="40.0163" gradientUnits="userSpaceOnUse">
<stop stop-color="#ED265D"/>
<stop offset="1" stop-color="#4353FF"/>
</linearGradient>
</defs>
</svg>
